HIERARCHY
ROOT joint_Root
{
	OFFSET 0.0 0.0 0.0
	CHANNELS 6 Xposition Yposition Zposition Zrotation Xrotation Yrotation 
	JOINT Hips
	{
		OFFSET 4.5925 91.4895 -427.239
		CHANNELS 6 Xposition Yposition Zposition Zrotation Xrotation Yrotation 
		JOINT Spine
		{
			OFFSET 15.7357 0.0 0.0
			CHANNELS 6 Xposition Yposition Zposition Zrotation Xrotation Yrotation 
			JOINT Chest
			{
				OFFSET 8.98455 -0.406207 0.0
				CHANNELS 6 Xposition Yposition Zposition Zrotation Xrotation Yrotation 
				JOINT Neck
				{
					OFFSET 16.3773 0.0 0.0
					CHANNELS 6 Xposition Yposition Zposition Zrotation Xrotation Yrotation 
					JOINT Head
					{
						OFFSET 6.45672 0.0 0.0
						CHANNELS 6 Xposition Yposition Zposition Zrotation Xrotation Yrotation 
						End Site
						{
							OFFSET 0.0 0.0 0.0
						}
					}
				}
				JOINT Shoulder_L
				{
					OFFSET 12.9942 -0.242716 4.98039
					CHANNELS 6 Xposition Yposition Zposition Zrotation Xrotation Yrotation 
					JOINT UpperArm_L
					{
						OFFSET 5.34809 0.0 0.0
						CHANNELS 6 Xposition Yposition Zposition Zrotation Xrotation Yrotation 
						JOINT LowerArm_L
						{
							OFFSET 24.3286 1.87007e-05 0.0
							CHANNELS 6 Xposition Yposition Zposition Zrotation Xrotation Yrotation 
							JOINT Hand_L
							{
								OFFSET 22.2916 0.0 0.0
								CHANNELS 6 Xposition Yposition Zposition Zrotation Xrotation Yrotation 
								End Site
								{
									OFFSET 0.0 0.0 0.0
								}
							}
						}
					}
				}
				JOINT Shoulder_R
				{
					OFFSET 12.9945 -0.242716 -4.98039
					CHANNELS 6 Xposition Yposition Zposition Zrotation Xrotation Yrotation 
					JOINT UpperArm_R
					{
						OFFSET -5.34813 0.0 0.0
						CHANNELS 6 Xposition Yposition Zposition Zrotation Xrotation Yrotation 
						JOINT LowerArm_R
						{
							OFFSET -24.3289 0.000322201 0.0
							CHANNELS 6 Xposition Yposition Zposition Zrotation Xrotation Yrotation 
							JOINT Hand_R
							{
								OFFSET -22.2915 -0.000108084 0.0
								CHANNELS 6 Xposition Yposition Zposition Zrotation Xrotation Yrotation 
								End Site
								{
									OFFSET 0.0 0.0 0.0
								}
							}
						}
					}
				}
			}
		}
		JOINT UpperLeg_L
		{
			OFFSET -2.19248 -6.46944 0.0
			CHANNELS 6 Xposition Yposition Zposition Zrotation Xrotation Yrotation 
			JOINT LowerLeg_L
			{
				OFFSET 39.0811 0.0 -1.23785e-05
				CHANNELS 6 Xposition Yposition Zposition Zrotation Xrotation Yrotation 
				JOINT Foot_L
				{
					OFFSET 40.9854 0.0 -1.26872e-05
					CHANNELS 6 Xposition Yposition Zposition Zrotation Xrotation Yrotation 
					JOINT Toes_L
					{
						OFFSET 11.7543 0.0 0.0
						CHANNELS 6 Xposition Yposition Zposition Zrotation Xrotation Yrotation 
						End Site
						{
							OFFSET 0.0 0.0 0.0
						}
					}
				}
			}
		}
		JOINT UpperLeg_R
		{
			OFFSET -2.19251 6.46944 0.0
			CHANNELS 6 Xposition Yposition Zposition Zrotation Xrotation Yrotation 
			JOINT LowerLeg_R
			{
				OFFSET -39.0811 -0.00228153 -0.0401928
				CHANNELS 6 Xposition Yposition Zposition Zrotation Xrotation Yrotation 
				JOINT Foot_R
				{
					OFFSET -40.9854 0.0 0.0
					CHANNELS 6 Xposition Yposition Zposition Zrotation Xrotation Yrotation 
					JOINT Toes_R
					{
						OFFSET -11.7543 0.0 0.0
						CHANNELS 6 Xposition Yposition Zposition Zrotation Xrotation Yrotation 
						End Site
						{
							OFFSET 0.0 0.0 0.0
						}
					}
				}
			}
		}
	}
}
MOTION
Frames:	4
Frame Time:	0.0333333
0.000000 0.000000 0.000000 0.000000 0.000000 -0.000000 -1.736280 84.212200 -0.131347 87.150100 -6.014090 11.480100 15.735700 0.000005 -0.000001 81.155500 80.914500 -80.497200 8.984550 -0.406207 -0.000000 10.213900 -2.761570 1.562760 16.377300 -0.000001 -0.000001 -0.728487 -2.783720 3.564010 6.456720 -0.000001 -0.000000 -4.857850 0.569565 5.566020 12.994200 -0.242716 4.980390 -91.445100 5.017510 -73.910600 5.348090 -0.000007 -0.000001 -63.317400 35.683800 -14.256200 24.328600 0.000019 0.000005 6.708410 12.377900 -28.754500 22.291600 -0.000001 0.000005 15.073500 5.234610 1.837020 12.994500 -0.242716 -4.980390 87.258600 12.249300 -77.282100 -5.348130 -0.000001 -0.000004 -61.531800 14.175900 -4.116530 -24.328900 0.000322 -0.000009 -0.569419 -2.778480 -11.416500 -22.291500 -0.000108 -0.000004 5.932330 5.146490 4.060690 -2.192480 -6.469440 -0.000000 -172.463000 -6.424280 -10.799000 39.081100 -0.000007 -0.000012 -0.659283 0.434855 56.593300 40.985400 -0.000006 -0.000013 -3.474410 -1.737960 -83.950000 11.754300 -0.000000 0.000003 -0.000398 -0.003294 -16.699000 -2.192510 6.469440 -0.000001 179.008000 13.075700 168.764000 -39.081100 -0.002282 -0.040193 0.068798 -0.044435 55.877700 -40.985400 0.000008 0.000006 7.191320 5.288870 -82.808400 -11.754300 -0.000006 -0.000006 -0.001392 -0.020833 -17.420300
0.000000 0.000000 0.000000 0.000000 0.000000 -0.000000 -2.150830 85.860400 -0.015303 87.158700 -3.233280 10.070200 15.735700 0.000005 -0.000001 82.876400 82.100700 -83.041000 8.984550 -0.406207 -0.000000 7.911310 -1.951160 -0.193917 16.377300 -0.000001 -0.000001 0.282762 -3.072100 3.505380 6.456720 -0.000001 -0.000000 -3.606060 -0.542593 5.808110 12.994200 -0.242716 4.980390 -91.465700 4.876130 -73.246400 5.348090 -0.000007 -0.000001 -63.842400 35.453400 -13.534300 24.328600 0.000019 0.000005 7.119570 13.193400 -28.689500 22.291600 -0.000001 0.000005 14.006500 5.231800 1.905490 12.994500 -0.242716 -4.980390 87.648700 10.116400 -76.840500 -5.348130 -0.000001 -0.000004 -58.900600 8.442060 -8.965940 -24.328900 0.000322 -0.000009 0.175383 1.531420 -6.585070 -22.291500 -0.000108 -0.000004 0.088716 5.082860 5.538000 -2.192480 -6.469440 -0.000000 -172.484000 -5.462220 -10.200800 39.081100 -0.000007 -0.000012 -0.547637 0.435841 51.486500 40.985400 -0.000006 -0.000013 -2.931280 -0.282236 -81.037500 11.754300 -0.000000 0.000003 -0.000377 -0.003147 -16.693900 -2.192510 6.469440 -0.000001 179.333000 14.920100 170.143000 -39.081100 -0.002282 -0.040193 0.065805 -0.051237 50.682100 -40.985400 0.000008 0.000006 6.792790 4.803630 -80.171900 -11.754300 -0.000006 -0.000006 -0.079391 -0.113693 -17.479500
0.000000 0.000000 0.000000 0.000000 0.000000 -0.000000 -2.252350 87.726200 -0.059816 87.541100 -1.225850 7.974670 15.735700 0.000005 -0.000001 82.046600 83.544900 -83.248500 8.984550 -0.406207 -0.000000 5.004670 -1.753800 -2.324440 16.377300 -0.000001 -0.000001 2.051930 -2.646970 3.654280 6.456720 -0.000001 -0.000000 -2.324710 -0.821444 5.869620 12.994200 -0.242716 4.980390 -91.394100 4.295920 -72.000100 5.348090 -0.000007 -0.000001 -65.309700 33.461100 -10.682200 24.328600 0.000019 0.000005 7.499810 13.588500 -29.263500 22.291600 -0.000001 0.000005 12.165300 5.252430 1.367830 12.994500 -0.242716 -4.980390 88.161100 7.538270 -76.248200 -5.348130 -0.000001 -0.000004 -55.712900 -2.550420 -17.903600 -24.328900 0.000322 -0.000009 0.068609 0.672662 -5.981480 -22.291500 -0.000108 -0.000004 -0.223763 4.931850 8.713930 -2.192480 -6.469440 -0.000000 -172.934000 -5.918300 -9.569470 39.081100 -0.000007 -0.000012 -0.414599 0.414694 44.994400 40.985400 -0.000006 -0.000013 -2.135200 1.509930 -77.380100 11.754300 -0.000000 0.000003 -0.000301 -0.002611 -16.674800 -2.192510 6.469440 -0.000001 179.345000 16.524900 171.093000 -39.081100 -0.002282 -0.040193 0.056915 -0.054707 44.440800 -40.985400 0.000008 0.000006 6.587940 5.037890 -76.768300 -11.754300 -0.000006 -0.000006 -0.053846 -0.090659 -17.825500
0.000000 0.000000 0.000000 0.000000 0.000000 -0.000000 -2.094130 89.270000 -0.176577 87.924000 -0.309858 6.340730 15.735700 0.000005 -0.000001 82.136500 84.635400 -84.068000 8.984550 -0.406207 -0.000000 2.842740 -1.383610 -3.824830 16.377300 -0.000001 -0.000001 3.492020 -2.213200 3.123450 6.456720 -0.000001 -0.000000 -1.318140 -0.609052 5.257110 12.994200 -0.242716 4.980390 -91.323200 3.843040 -70.984300 5.348090 -0.000007 -0.000001 -66.643300 31.077800 -7.583110 24.328600 0.000019 0.000005 7.526720 13.300300 -29.869900 22.291600 -0.000001 0.000005 11.499500 5.257580 1.231350 12.994500 -0.242716 -4.980390 88.628700 5.596290 -76.209700 -5.348130 -0.000001 -0.000004 -51.622800 -13.604800 -29.939000 -24.328900 0.000322 -0.000009 -1.350660 -6.800700 -11.138700 -22.291500 -0.000108 -0.000004 7.538950 5.060550 6.181180 -2.192480 -6.469440 -0.000000 -173.351000 -7.803980 -8.418660 39.081100 -0.000007 -0.000012 -0.294899 0.366012 38.859300 40.985400 -0.000006 -0.000013 -1.263740 3.618610 -74.015000 11.754300 -0.000000 0.000003 -0.000221 -0.002014 -16.653300 -2.192510 6.469440 -0.000001 179.183000 17.432400 172.238000 -39.081100 -0.002282 -0.040193 0.044373 -0.051491 38.590500 -40.985400 0.000008 0.000006 6.165210 5.757130 -73.545600 -11.754300 -0.000006 -0.000006 -0.002807 -0.038403 -18.134800
